<?xml version="1.0" encoding="UTF-8"?>
<svg id="Layer_2" data-name="Layer 2" xmlns="http://www.w3.org/2000/svg" viewBox="0 0 600.32 141.65">
  <defs>
    <style>
      .cls-1 {
        fill: #ff3717;
      }
    </style>
  </defs>
  <g id="Layer_1-2" data-name="Layer 1">
    <g>
      <g>
        <path class="cls-1" d="M.19,7.53c-.13-2.43-.19-4.35-.19-5.77,0-.42,.21-.73,.63-.94,.42-.21,.92-.31,1.5-.31,1.25,0,2.57,.31,3.95,.94,1.38,.63,2.07,1.49,2.07,2.57,0,1-.04,2.57-.12,4.71-.08,2.13-.13,4.29-.13,6.46v60.48c0,2.59,.06,5.1,.19,7.53,.13,2.43,.19,4.35,.19,5.77,0,.42-.21,.73-.63,.94-.42,.21-.92,.31-1.5,.31-1.25,0-2.57-.31-3.95-.94-1.38-.63-2.07-1.48-2.07-2.57,0-1,.04-2.57,.12-4.71,.08-2.13,.13-4.29,.13-6.46V15.06c0-2.59-.06-5.1-.19-7.53Z"/>
        <path class="cls-1" d="M77.73,43.16c-.63-2.59-1.76-4.64-3.39-6.15-1.63-1.51-4.04-2.26-7.21-2.26-2.93,0-5.94,.63-9.03,1.88-3.1,1.25-5.9,3.2-8.41,5.83-2.51,2.64-4.39,6.09-5.65,10.35-1,3.35-1.57,7.09-1.69,11.23-.13,4.14-.23,8.05-.31,11.73v1.76c0,2.34,.06,4.54,.19,6.59,.13,2.05,.19,3.7,.19,4.96,0,.75-.63,1.13-1.88,1.13-1.09,0-2.28-.31-3.58-.94-1.3-.63-1.94-1.44-1.94-2.45,0-.67,.02-1.78,.06-3.33,.04-1.55,.08-3.07,.12-4.58,.04-1.51,.06-2.55,.06-3.14V43.16c0-.84-.04-2.13-.13-3.89-.08-1.76-.15-3.55-.19-5.4-.04-1.84-.06-3.22-.06-4.14,0-.75,.63-1.13,1.88-1.13,1.17,0,2.38,.31,3.64,.94,1.25,.63,1.88,1.44,1.88,2.45v3.2c0,1.46-.02,2.99-.06,4.58-.04,1.59-.06,2.97-.06,4.14,1.67-3.43,3.87-6.29,6.59-8.59,2.72-2.3,5.69-4.06,8.91-5.27,3.22-1.21,6.38-1.82,9.47-1.82,4.02,0,7.23,.73,9.66,2.2,2.42,1.46,4.27,3.37,5.52,5.71,1.25,2.34,2.09,4.87,2.51,7.59,.42,2.72,.63,5.33,.63,7.84v24.22c0,.5,.04,1.63,.13,3.39,.08,1.76,.14,3.6,.19,5.52,.04,1.93,.06,3.39,.06,4.39,0,.75-.63,1.13-1.88,1.13-1.09,0-2.28-.31-3.58-.94-1.3-.63-1.95-1.44-1.95-2.45,0-.67,.02-1.69,.06-3.07,.04-1.38,.08-2.82,.12-4.33,.04-1.51,.06-2.72,.06-3.64v-23.71c0-3.34-.31-6.31-.94-8.91Z"/>
        <path class="cls-1" d="M138.89,86.51c-4.43,2.97-9.12,4.45-14.05,4.45-6.02,0-10.92-2.2-14.68-6.59-3.76-4.39-5.65-10.64-5.65-18.76,0-4.93,.83-9.64,2.51-14.12,1.67-4.47,3.97-8.47,6.9-11.98,2.93-3.51,6.25-6.27,9.97-8.28,3.72-2.01,7.59-3.01,11.61-3.01,3.18,0,6.13,.65,8.84,1.94,2.72,1.3,4.87,3.41,6.46,6.34V14.55c0-2.59-.04-5.1-.12-7.53-.08-2.42-.13-4.35-.13-5.77,0-.75,.63-1.13,1.88-1.13,1.09,0,2.26,.31,3.51,.94s1.88,1.44,1.88,2.45-.04,2.57-.13,4.71c-.08,2.13-.12,4.29-.12,6.46v51.06c0,3.68,.38,7.26,1.13,10.73,.75,3.47,1.8,6.04,3.14,7.72,.17,.17,.25,.5,.25,1,0,.92-.46,1.99-1.38,3.2-.92,1.21-1.92,1.82-3.01,1.82-.92,0-1.88-.88-2.89-2.64-1-1.76-1.86-3.95-2.57-6.59-.71-2.63-1.07-5.33-1.07-8.09v-.5c-3.76,6.44-7.86,11.15-12.29,14.11Zm10.04-44.73c-.5,0-.88-.21-1.13-.63-1.59-2.51-3.45-4.29-5.58-5.33-2.13-1.04-4.33-1.57-6.59-1.57-3.43,0-6.61,.92-9.54,2.76-2.93,1.84-5.48,4.27-7.65,7.28-2.18,3.01-3.87,6.34-5.08,9.97-1.21,3.64-1.82,7.3-1.82,10.98,0,6.61,1.32,11.5,3.95,14.68,2.63,3.18,5.75,4.77,9.35,4.77,2.93,0,5.9-.82,8.91-2.45,3.01-1.63,5.81-3.87,8.41-6.71,2.59-2.84,4.68-6.09,6.27-9.72,1.59-3.64,2.38-7.46,2.38-11.48v-13.55c-.42,.67-1.05,1-1.88,1Z"/>
        <path class="cls-1" d="M184.18,64.11c0,6.86,1.57,12,4.71,15.43,3.14,3.43,6.84,5.14,11.1,5.14,5.44,0,10.39-.98,14.87-2.95,4.47-1.96,8.38-4.75,11.73-8.34,1-1.09,1.88-1.63,2.63-1.63,.67,0,1,.42,1,1.25,0,.75-.63,2.09-1.88,4.02-1.25,1.93-3.12,3.95-5.58,6.09-2.47,2.13-5.6,3.97-9.41,5.52-3.81,1.55-8.26,2.32-13.36,2.32-4.27,0-8.09-1.07-11.48-3.2s-6.08-5.19-8.09-9.16c-2.01-3.97-3.01-8.68-3.01-14.12v-1.88c-1.76-1.17-2.63-2.42-2.63-3.76,0-1,.71-1.51,2.13-1.51,.17,0,.63-.04,1.38-.13,.5-3.01,1.65-6.19,3.45-9.54,1.8-3.34,4.08-6.48,6.84-9.41,2.76-2.93,5.9-5.33,9.41-7.21,3.51-1.88,7.32-2.82,11.42-2.82,5.1,0,9.16,.88,12.17,2.63,3.01,1.76,5.16,4.02,6.46,6.78,1.3,2.76,1.95,5.65,1.95,8.66,0,2.43-.29,4.43-.88,6.02-.59,1.59-1.74,2.95-3.45,4.08-1.71,1.13-4.25,2.24-7.59,3.32-3.76,1.09-8.37,2.03-13.8,2.82-5.44,.8-11.63,1.19-18.57,1.19h-1.51v.38Zm19.76-7.53c4.47-.67,8.13-1.42,10.98-2.26,2.59-.75,4.45-1.46,5.58-2.13,1.13-.67,1.86-1.46,2.2-2.38,.33-.92,.5-2.13,.5-3.64,0-3.68-1.21-6.59-3.64-8.72-2.43-2.13-5.86-3.2-10.29-3.2-3.1,0-6.02,.77-8.78,2.32-2.76,1.55-5.21,3.53-7.34,5.96-2.13,2.43-3.91,4.98-5.33,7.65-1.42,2.68-2.34,5.14-2.76,7.4h2.63c6.36,0,11.77-.33,16.25-1Z"/>
        <path class="cls-1" d="M249.18,39.02c-.08-1.76-.15-3.55-.19-5.4-.04-1.84-.06-3.22-.06-4.14,0-.75,.63-1.13,1.88-1.13,1.17,0,2.38,.31,3.64,.94s1.88,1.44,1.88,2.45-.02,2.24-.06,3.7c-.04,1.46-.06,2.95-.06,4.45,1.67-3.18,4.29-5.92,7.84-8.22,3.55-2.3,7.55-3.45,11.98-3.45,2.26,0,4.47,.4,6.65,1.19,2.17,.8,3.97,1.76,5.4,2.89,1.42,1.13,2.13,2.24,2.13,3.32,0,1.17-.38,2.38-1.13,3.64s-1.55,1.88-2.38,1.88c-.67,0-1.25-.42-1.76-1.25-.84-1.67-2.26-2.89-4.27-3.64-2.01-.75-3.68-1.13-5.02-1.13-3.6,0-7.11,1.21-10.54,3.64-3.43,2.43-5.86,5.94-7.28,10.54-.59,1.92-1,4.01-1.25,6.27-.25,2.26-.4,4.98-.44,8.16-.04,3.18-.06,7.15-.06,11.92,0,2.59,.06,5.1,.19,7.53,.12,2.43,.19,4.35,.19,5.77,0,.75-.63,1.13-1.88,1.13-1.09,0-2.28-.31-3.58-.94-1.3-.63-1.95-1.44-1.95-2.45,0-.67,.02-1.78,.06-3.33,.04-1.55,.08-3.07,.12-4.58,.04-1.51,.06-2.55,.06-3.14V42.91c0-.84-.04-2.13-.12-3.89Z"/>
        <path class="cls-1" d="M346.16,8.41c-.84-1.09-1.25-2.09-1.25-3.01,0-.75,.33-1.3,1-1.63,1.67-.67,4.2-1.3,7.59-1.88,3.39-.58,7.09-1.04,11.1-1.38,4.02-.33,7.65-.5,10.92-.5,6.61,0,11.94,.86,16,2.57,4.06,1.72,7.03,4,8.91,6.84,1.88,2.84,2.82,6.07,2.82,9.66s-.88,6.76-2.63,9.47c-1.76,2.72-3.91,4.96-6.46,6.71-2.55,1.76-5.04,3.05-7.46,3.89,4.18,.25,8.05,1.38,11.61,3.39,3.55,2.01,6.44,4.69,8.66,8.03,2.21,3.35,3.33,7.15,3.33,11.42,0,5.44-1.15,9.91-3.45,13.43-2.3,3.51-5.33,6.25-9.1,8.22-3.76,1.97-7.86,3.41-12.3,4.33-4.43,.92-8.87,1.48-13.3,1.69-4.43,.21-8.41,.31-11.92,.31-1.84,0-4.35-.11-7.53-.31-3.18-.21-5.9-.48-8.16-.82-1.51-.25-2.26-.92-2.26-2.01,0-.58,.23-1.09,.69-1.51,.46-.42,1.07-.63,1.82-.63,.67,0,2.05-.08,4.14-.25V10.29c-1-.17-1.93-.79-2.76-1.88Zm17.5,29.86c2.13-.08,4.2-.23,6.21-.44,2.01-.21,3.64-.4,4.89-.56,3.09-.58,6.27-1.63,9.54-3.14,3.26-1.51,6.02-3.47,8.28-5.9,2.26-2.43,3.39-5.23,3.39-8.41,0-4.68-1.86-8.09-5.58-10.23-3.72-2.13-9.18-3.2-16.37-3.2-2.84,0-5.88,.19-9.1,.56-3.22,.38-6.13,.9-8.72,1.57v29.86h1.63c1.76,0,3.7-.04,5.83-.13Zm2.45,5.4c-3.85,.17-7.15,.38-9.91,.63v40.53c2.93,0,6.38-.1,10.35-.31,3.97-.21,8.07-.67,12.3-1.38,4.22-.71,8.17-1.88,11.86-3.51,3.68-1.63,6.65-3.83,8.91-6.59,2.26-2.76,3.39-6.31,3.39-10.66,0-3.43-.77-6.34-2.32-8.72-1.55-2.38-3.56-4.31-6.02-5.77-2.47-1.46-5.1-2.55-7.9-3.26-2.8-.71-5.46-1.11-7.97-1.19h-2.51c-2.93,0-6.32,.08-10.16,.25Z"/>
        <path class="cls-1" d="M428.59,39.02c-.08-1.76-.15-3.55-.19-5.4-.04-1.84-.06-3.22-.06-4.14,0-.75,.63-1.13,1.88-1.13,1.17,0,2.38,.31,3.64,.94,1.25,.63,1.88,1.44,1.88,2.45s-.02,2.24-.06,3.7c-.04,1.46-.06,2.95-.06,4.45,1.67-3.18,4.29-5.92,7.84-8.22,3.55-2.3,7.55-3.45,11.98-3.45,2.26,0,4.47,.4,6.65,1.19,2.17,.8,3.97,1.76,5.4,2.89,1.42,1.13,2.13,2.24,2.13,3.32,0,1.17-.38,2.38-1.13,3.64s-1.55,1.88-2.38,1.88c-.67,0-1.25-.42-1.76-1.25-.84-1.67-2.26-2.89-4.27-3.64-2.01-.75-3.68-1.13-5.02-1.13-3.6,0-7.11,1.21-10.54,3.64-3.43,2.43-5.86,5.94-7.28,10.54-.59,1.92-1,4.01-1.25,6.27-.25,2.26-.4,4.98-.44,8.16-.04,3.18-.06,7.15-.06,11.92,0,2.59,.06,5.1,.19,7.53,.12,2.43,.19,4.35,.19,5.77,0,.75-.63,1.13-1.88,1.13-1.09,0-2.28-.31-3.58-.94-1.3-.63-1.94-1.44-1.94-2.45,0-.67,.02-1.78,.06-3.33,.04-1.55,.08-3.07,.13-4.58,.04-1.51,.06-2.55,.06-3.14V42.91c0-.84-.04-2.13-.13-3.89Z"/>
        <path class="cls-1" d="M531.29,38.96c-.21,3.05-.38,6.27-.5,9.66-.12,3.39-.23,6.55-.31,9.47-.08,2.93-.12,5.14-.12,6.65,0,1.09,.06,2.78,.19,5.08,.12,2.3,.5,4.79,1.13,7.47,.63,2.68,1.65,5.14,3.07,7.4,.17,.34,.25,.63,.25,.88,0,.92-.44,1.94-1.32,3.07-.88,1.13-1.9,1.69-3.07,1.69-.84,0-1.65-.61-2.45-1.82-.8-1.21-1.5-2.76-2.13-4.64-.63-1.88-1.15-3.78-1.57-5.71-.42-1.92-.67-3.6-.75-5.02-3.01,6.11-6.84,10.6-11.48,13.49-4.64,2.89-9.35,4.33-14.12,4.33-6.02,0-10.85-2.03-14.49-6.08-3.64-4.06-5.46-10.02-5.46-17.88,0-5.27,.9-10.25,2.7-14.93,1.8-4.68,4.18-8.82,7.15-12.42,2.97-3.6,6.27-6.4,9.91-8.41s7.3-3.01,10.98-3.01c3.09,0,6.04,.75,8.85,2.26,2.8,1.51,4.87,3.85,6.21,7.03,.08-1.92,.15-3.62,.19-5.08,.04-1.46,.06-2.49,.06-3.07,0-.75,.71-1.13,2.13-1.13,1.17,0,2.4,.29,3.7,.88,1.3,.59,1.94,1.34,1.94,2.26v.25c-.25,1.84-.48,4.29-.69,7.34Zm-8.28,2.45c-.46,.25-.9,.38-1.32,.38-.5,0-.88-.17-1.13-.5-1.59-2.42-3.43-4.2-5.52-5.33-2.09-1.13-4.1-1.69-6.02-1.69-2.76,0-5.54,.82-8.34,2.45-2.8,1.63-5.38,3.91-7.72,6.84-2.34,2.93-4.2,6.34-5.58,10.23-1.38,3.89-2.07,8.09-2.07,12.61,0,6.44,1.21,11.1,3.64,13.99,2.42,2.89,5.48,4.33,9.16,4.33,4.18,0,8.17-1.34,11.98-4.01,3.8-2.68,6.96-6.44,9.47-11.29,2.51-4.85,3.89-10.5,4.14-16.94,.08-1.25,.13-3.03,.13-5.33s.04-4.5,.12-6.59c-.17,.33-.48,.63-.94,.88Z"/>
        <path class="cls-1" d="M554.68,39.02c-.08-1.76-.15-3.55-.19-5.4-.04-1.84-.06-3.22-.06-4.14,0-.75,.63-1.13,1.88-1.13,1.17,0,2.38,.31,3.64,.94,1.25,.63,1.88,1.44,1.88,2.45s-.02,2.24-.06,3.7c-.04,1.46-.06,2.95-.06,4.45,1.67-3.18,4.29-5.92,7.84-8.22,3.55-2.3,7.55-3.45,11.98-3.45,2.26,0,4.47,.4,6.65,1.19,2.17,.8,3.97,1.76,5.4,2.89,1.42,1.13,2.13,2.24,2.13,3.32,0,1.17-.38,2.38-1.13,3.64s-1.55,1.88-2.38,1.88c-.67,0-1.25-.42-1.76-1.25-.84-1.67-2.26-2.89-4.27-3.64-2.01-.75-3.68-1.13-5.02-1.13-3.6,0-7.11,1.21-10.54,3.64-3.43,2.43-5.86,5.94-7.28,10.54-.59,1.92-1,4.01-1.25,6.27-.25,2.26-.4,4.98-.44,8.16-.04,3.18-.06,7.15-.06,11.92,0,2.59,.06,5.1,.19,7.53,.12,2.43,.19,4.35,.19,5.77,0,.75-.63,1.13-1.88,1.13-1.09,0-2.28-.31-3.58-.94-1.3-.63-1.94-1.44-1.94-2.45,0-.67,.02-1.78,.06-3.33,.04-1.55,.08-3.07,.13-4.58,.04-1.51,.06-2.55,.06-3.14V42.91c0-.84-.04-2.13-.13-3.89Z"/>
      </g>
      <path class="cls-1" d="M188.78,122.31c25.35-5.57,51.34-9.44,77.1-12.6,25.11-3.09,52-5.54,77.22-7.03,17.32-1.14,40.56-2.05,58.01-2.44,9.27-.11,22.93-.25,32.23-.36,8.37,.09,30.05,.4,38.65,.52,11.63,.53,33.52,1.18,45.02,1.9,11.82,.88,33.17,2.05,44.92,3.21,8.76,.83,29.54,2.86,38.39,3.7-15.08-.63-36.53-1.95-51.34-2.24-32.63-.86-70-.83-102.64,.58-13.91,.37-30.93,1.58-44.79,2.38-4.16,.19-27.27,2.24-31.91,2.6-20.74,1.86-42.87,4.56-63.54,7.31-29.12,4.22-59.17,9.26-87.84,15.79-8.15,1.84-16.4,3.8-24.4,6.03,0,0-5.08-19.34-5.08-19.34h0Z"/>
    </g>
  </g>
</svg>